# xmcd
#
# Track frame offsets: 
#        150
#        11902
#        23365
#        35295
#        49336
#        58714
#        73500
#        88162
#        107206
#        119259
#        131076
#        142895
#        156429
#        171546
#        184565
#
# Disc length: 2635 seconds
#
# Revision: 2
# Processed by: cddbd v1.5.2PL0 Copyright (c) Steve Scherf et al.
# Submitted via: ExactAudioCopy v0.90b4
#
DISCID=d10a490f
DTITLE=Various Artist - Classic Country - Queens Of Country [CD1]
DYEAR=2003
DGENRE=Country
TTITLE0=Patsy Cline - Sweet Dreams [Of You]
TTITLE1=Crystal Gayle - Don't It Make My Brown Eyes Blue
TTITLE2=Brenda Lee - Break It To Me Gently
TTITLE3=Barbara Mandrell - [If Loving You Is Wrong] I Don't Want To Be
TTITLE3=Right
TTITLE4=Dottie West - Country Sunshine
TTITLE5=Jeanne Pruett - Satin Sheets
TTITLE6=Jeannie C. Riley - Harper Valley P.T.A.
TTITLE7=Bobbie Gentry - Ode To Billie Joe
TTITLE8=Marie Osmond - Paper Roses
TTITLE9=Skeeter Davis - The End Of The World
TTITLE10=Wanda Jackson - Right Or Wrong
TTITLE11=The Davis Sisters - I Forgot More Than You'll Ever Know
TTITLE12=Jessi Colter - I'm Not Lisa
TTITLE13=Kitty Wells - Makin' Believe
TTITLE14=Dolly Parton - I Will Always Love You
EXTD=
EXTT0=
EXTT1=
EXTT2=
EXTT3=
EXTT4=
EXTT5=
EXTT6=
EXTT7=
EXTT8=
EXTT9=
EXTT10=
EXTT11=
EXTT12=
EXTT13=
EXTT14=
PLAYORDER=
